Coordinates
version=1
nRows=4
nColumns=63
inDegrees=yes

Units are S.I. units (second, meters, Newtons, ...)
If the header above contains a line with 'inDegrees', this indicates whether rotational values are in degrees (yes) or radians (no).

endheader
time	pelvis_tilt	pelvis_list	pelvis_rotation	pelvis_tx	pelvis_ty	pelvis_tz	hip_flexion_r	hip_adduction_r	hip_rotation_r	knee_angle_r	knee_angle_r_beta	ankle_angle_r	subtalar_angle_r	mtp_angle_r	hip_flexion_l	hip_adduction_l	hip_rotation_l	knee_angle_l	knee_angle_l_beta	ankle_angle_l	subtalar_angle_l	mtp_angle_l	L5_S1_Flex_Ext	L5_S1_Lat_Bending	L5_S1_axial_rotation	L4_L5_Flex_Ext	L4_L5_Lat_Bending	L4_L5_axial_rotation	L3_L4_Flex_Ext	L3_L4_Lat_Bending	L3_L4_axial_rotation	L2_L3_Flex_Ext	L2_L3_Lat_Bending	L2_L3_axial_rotation	L1_L2_Flex_Ext	L1_L2_Lat_Bending	L1_L2_axial_rotation	L1_T12_Flex_Ext	L1_T12_Lat_Bending	L1_T12_axial_rotation	Abs_r3	Abs_r2	Abs_r1	Abs_t1	Abs_t2	neck_flexion	neck_bending	neck_rotation	arm_flex_r	arm_add_r	arm_rot_r	elbow_flex_r	pro_sup_r	wrist_flex_r	wrist_dev_r	arm_flex_l	arm_add_l	arm_rot_l	elbow_flex_l	pro_sup_l	wrist_flex_l	wrist_dev_l
      0.20000000	     12.17844781	   -168.17529496	     -7.12957311	     -0.39030049	     -0.16331716	     -0.01861890	     15.50619517	      1.90559061	     21.55302287	     13.35180341	      0.23303293	      0.00000000	      0.00000000	      0.00000000	     20.83483913	     -4.82398129	    -27.50998711	     17.71273124	      0.30914548	      0.00000000	      0.00000000	      0.00000000	      0.05175896	     -0.65991212	      0.10837225	      0.09612157	     -0.87768311	      0.11514552	      0.08503480	     -1.60451032	      0.11514552	      0.05915532	     -1.60451032	      0.09482572	      0.04806337	     -1.34569279	      0.08805246	      0.02957507	     -1.02220387	      0.08127919	      0.36970909	     -7.46505784	      0.60273397	      0.00000000	      0.00000000	     27.64958369	    -28.83926097	    -35.13639138	      3.22107526	     -7.71938832	     16.48391282	     79.21949614	     89.99559364	      0.00000000	      0.00000000	      6.16164212	    -19.55163720	      0.37330359	     96.29460811	     89.99559364	      0.00000000	      0.00000000
      0.40000000	     12.19726330	   -168.10077678	     -9.59511562	     -0.38696259	     -0.14079399	     -0.02195148	     15.95270896	      2.31452161	     20.47244798	     15.80930318	      0.27592439	      0.00000000	      0.00000000	      0.00000000	     20.43102009	     -5.47835678	    -26.56531803	     18.17800443	      0.31726603	      0.00000000	      0.00000000	      0.00000000	      0.04776899	     -0.65655713	      0.16520391	      0.08871179	     -0.87322098	      0.17552915	      0.07847967	     -1.59635300	      0.17552915	      0.05459518	     -1.59635300	      0.14455342	      0.04435828	     -1.33885129	      0.13422817	      0.02729520	     -1.01700699	      0.12390293	      0.34120911	     -7.42710553	      0.91881456	      0.00000000	      0.00000000	     27.70475817	    -28.93180652	    -35.04183120	      5.03275993	     -6.34315262	     18.51135583	     74.53048493	     89.99559364	      0.00000000	      0.00000000	      7.42024006	    -19.37888981	      3.08670118	     95.78423054	     89.99559364	      0.00000000	      0.00000000
      0.60000000	     12.07708647	   -167.89937237	    -11.51508906	     -0.38410663	     -0.11118892	     -0.02419718	     16.39021330	      1.96311539	     17.59699545	     18.88419286	      0.32959134	      0.00000000	      0.00000000	      0.00000000	     20.59083132	     -5.76757533	    -23.92049105	     20.68130413	      0.36095685	      0.00000000	      0.00000000	      0.00000000	      0.04222235	     -0.68711375	      0.26794507	      0.07841113	     -0.91386128	      0.28469163	      0.06936710	     -1.67064836	      0.28469163	      0.04825592	     -1.67064836	      0.23445193	      0.03920767	     -1.40116235	      0.21770537	      0.02412585	     -1.06433919	      0.20095880	      0.30159002	     -7.77276812	      1.49023007	      0.00000000	      0.00000000	     27.70507404	    -28.52291489	    -34.65354585	      5.78505683	     -5.41009554	     18.89761783	     71.49496766	     89.99559364	      0.00000000	      0.00000000	      9.68104022	    -19.30995487	      8.54736418	     93.29043518	     89.99559364	      0.00000000	      0.00000000
      0.80000000	     11.73150506	   -167.83701018	    -13.72865972	     -0.38084516	     -0.07692991	     -0.02672447	     17.79965572	      2.44536678	     17.78385103	     24.03076583	      0.41941599	      0.00000000	      0.00000000	      0.00000000	     21.26378426	     -6.32613454	    -21.91731219	     25.49745946	      0.44501462	      0.00000000	      0.00000000	      0.00000000	      0.03585149	     -0.65122063	      0.29531137	      0.06657980	     -0.86612344	      0.31376833	      0.05890041	     -1.58337784	      0.31376833	      0.04097467	     -1.58337784	      0.25839745	      0.03329169	     -1.32796911	      0.23994049	      0.02048554	     -1.00874076	      0.22148353	      0.25608360	     -7.36673802	      1.64243325	      0.00000000	      0.00000000	     27.65403315	    -28.00191958	    -34.16160079	      6.64557221	     -4.95868911	     18.73515693	     67.88060586	     89.99559364	      0.00000000	      0.00000000	     10.95984847	    -18.83815737	     13.26455559	     91.40686619	     89.99559364	      0.00000000	      0.00000000
